,
Brought to you by  http://www.scenetime.com/signup.php
 
 Hottest scene tracker on the net !!!   
 
No fake torrents from scenebalance 
shame on those who comment fake before downloading my torrents

    seed back for speed


 



...................................NFO:.................................................##################################################################                                  
######## ## ##### ##### ### #     # #     #  #### ################                                  
########### ##### ##### ### # ####### ### # # ### ################                                  
######## ## ##### ##### ### #     # # ### # ## ## ################                                  
######## ## ##### ##### ### ##### # # ### # ### # ################                                  
######## ## ##### ##### ### ##### # # ### # ####  ################                                  
######## ##     #     #     #     # #     # ##### ################                                  
##################################################################                                  
##################################################################                                  
                                                                                                    
++++++++++++++++++++++++++++++++++++++++++++++++++++++++++++++++++                                  
++++++++++++++++++++++++++++++++++++++++++++++++++++++++++++++++++                                  
                       Presents                                                                                   
                                                                                                    
    Fast & Furious 5 Rio Heist 2011 TS XviD - iLLUSiON                                                                                                  
                                                                                                    
++++++++++++++++++++++++++++++++++++++++++++++++++++++++++++++++++                                  
++++++++++++++++++++++++++++++++++++++++++++++++++++++++++++++++++ 

                       Source's

Video: Fast & Furious 5 Rio Heist TS V2 READNFO XViD - IMAGiNE

Audio: Fast & Furious 5 Rio Heist TS V2 READNFO XViD - IMAGiNE  

(THANKS)

                                  
 
              
                      Film Info


Plot: Dominic and his crew find themselves on the 
wrong side of the law once again as they try to switch lanes 
between a ruthless drug lord and a relentless federal agent. 

IMDB Link: http://www.imdb.com/title/tt1596343/

IMDB Rating: 7.9

Trailer:



                                  
  
                   
                     General Info


Size: 1.23GB

Format: AVI

Runtime: 1:56:44           
                                                                                                    
                                                                                                    
                                  
                                  
                                                                                                    
                      Video Info                                                                                         
                                                                                                    
ID                               : 0
Format                           : MPEG-4 Visual
Format profile                   : Advanced Simple@L5
Format settings, BVOP            : 2
Format settings, QPel            : No
Format settings, GMC             : No warppoints
Format settings, Matrix          : Default (H.263)
Muxing mode                      : Packed bitstream
Codec ID                         : XVID
Codec ID/Hint                    : XviD
Duration                         : 1h 56mn
Bit rate                         : 1 376 Kbps
Width                            : 720 pixels
Height                           : 304 pixels
Display aspect ratio             : 2.35:1
Frame rate                       : 23.976 fps
Color space                      : YUV
Chroma subsampling               : 4:2:0
Bit depth                        : 8 bits
Scan type                        : Progressive
Compression mode                 : Lossy
Bits/(Pixel*Frame)               : 0.262
Stream size                      : 1.12 GiB (91%)
Writing library                  : XviD 58                                                           
                                                                                                    
                                  
                                  
                                                                                                    
                      Audio Info                                                                               
                                                                                                    
ID                               : 1
Format                           : MPEG Audio
Format version                   : Version 1
Format profile                   : Layer 3
Mode                             : Joint stereo
Mode extension                   : MS Stereo
Codec ID                         : 55
Codec ID/Hint                    : MP3
Duration                         : 1h 56mn
Bit rate mode                    : Constant
Bit rate                         : 128 Kbps
Channel(s)                       : 2 channels
Sampling rate                    : 44.1 KHz
Compression mode                 : Lossy
Stream size                      : 107 MiB (8%)
Alignment                        : Split accross interleaves
Interleave, duration             : 42 ms (1.00 video frame)
Interleave, preload duration     : 500 ms
Writing library                  : LAME3.98r
Encoding settings                : -m j -V 4 -q 2 -lowpass 17 -b 128                                                                                     
                                                          
                                                                                                    
                                  
                                  
                                                                                                    
                                                                                                    
__________________________________________________________________                                  
__________________________________________________________________                                  
                   
                    Encoders Notes                                                              
                                                                                                    
I dropped the source into vdubmod.
I lowered the brightness & saturation. 
increased the contrast.
Then i de-noised it, changed the colors with a rgb eq &
used a color de-noiser.
Finaly i sharpened it.
Overal its prety good imo.
Ive read comments on others saying half the screen is missing :(
There are only bits missing for short periods of time.
Here is a comparison beetween mine & the source. 
http://screenshotcomparison.com/comparison/48942
Download the sample first to check that your happy with the quality.
Enjoy...                                                
__________________________________________________________________                                  
__________________________________________________________________                                  
                 
    
I am looking for;
Cammers, Cams, Screeners (any type), Cam audio, Line audio, 
Un-released R6's R5's R4's R2's R1's, 
A Windows Server & a syncer. 
If you can provide any of these please
contact me at illusion@hushmail.me


  
Greetz & Respect:
ChattChitto RG, Hunter, iNK, DiNGiE, Recalled2Life,
Xclusive666, IFLIX, Demedic, ELEKTRI4KA, hiest, Feel-Free, 
StoNerS, every uploader & encoder out there. 


                                  


Need a fast & cheap seedbox?
Visit www.seedm8.com

There M.50 has:

100 GB Disk Space

.5GB Burst Bandwidth

10 MBiT (avg. 25 MBiT) Dedicated Bandwidth

No upload/download limit

All for $16 per month.

If thats not enougth check out there G.100 
http://www.seedm8.com/g100/read-more



                                  

##################################################################
##############     ##  ##### ##       ##     ## ### ##############
############## ###### # #### ##### ##### ### ### # ###############
############## ###### ## ### ##### ##### ### #### ################
##############     ## ### ## ##### ##### ### #### ################
############## ###### #### # ##### ##### ### #### ################
############## ###### #####  #### ###### ### #### ################
##############     ## ###### ##  #######     #### ################
##################################################################